<svg width="109" height="24" viewBox="0 0 109 24" fill="none" xmlns="http://www.w3.org/2000/svg">
<path d="M7.20208 16.6907L3.77348 15.45L3.75531 6.02917L7.18391 7.26983L7.18647 8.72674L7.18597 8.73227L7.20208 16.6907Z" fill="#14B8A6"/>
<path d="M7.18385 7.26977L3.75525 6.0291L16.814 1.28L20.2426 2.52066L9.25459 6.51723L9.24278 6.52013L7.18385 7.26977Z" fill="url(#paint0_linear_9354_641)"/>
<path d="M7.20197 16.6905L7.18582 8.73208L7.18632 8.72655L7.18378 7.26964L9.24272 6.52001L9.25452 6.5171L20.2426 2.52054L20.2446 3.94981L9.4648 8.06251L8.63729 8.36266L8.63908 8.37435L8.63955 9.25812L8.65343 16.1628L7.20197 16.6905Z" fill="url(#paint1_linear_9354_641)"/>
<path d="M16.7979 7.30929L20.2265 8.54996L20.2446 17.9708L16.816 16.7302L16.8135 15.2733L16.814 15.2677L16.7979 7.30929Z" fill="#14B8A6"/>
<path d="M16.816 16.7302L20.2446 17.9709L7.18577 22.72L3.75718 21.4793L14.7452 17.4828L14.757 17.4799L16.816 16.7302Z" fill="url(#paint2_linear_9354_641)"/>
<path d="M16.798 7.30951L16.8141 15.2679L16.8136 15.2734L16.8162 16.7304L14.7572 17.48L14.7454 17.4829L3.75735 21.4795L3.7553 20.0502L14.5351 15.9375L15.3626 15.6373L15.3609 15.6257L15.3604 14.7419L15.3465 7.83717L16.798 7.30951Z" fill="url(#paint3_linear_9354_641)"/>
<path d="M32.949 20.4729C31.5775 20.4729 30.4345 20.2586 29.5202 19.83C28.6059 19.4014 27.9201 18.8085 27.4629 18.0513C27.0058 17.2798 26.77 16.3941 26.7557 15.394H29.1559C29.1702 16.0512 29.313 16.6298 29.5845 17.1298C29.8702 17.6156 30.2917 17.987 30.8488 18.2442C31.406 18.5013 32.1275 18.6299 33.0133 18.6299C33.7419 18.6299 34.3776 18.5442 34.9205 18.3727C35.4634 18.187 35.8848 17.9084 36.1849 17.537C36.4849 17.1655 36.6349 16.6869 36.6349 16.1012C36.6349 15.6583 36.5635 15.2869 36.4206 14.9868C36.2777 14.6868 36.042 14.4368 35.7134 14.2368C35.3991 14.0225 34.9777 13.8439 34.4491 13.701C33.9347 13.5582 33.2918 13.4225 32.5204 13.2939C31.6346 13.1367 30.8488 12.951 30.1631 12.7367C29.4916 12.5081 28.9273 12.2295 28.4701 11.9009C28.0272 11.5581 27.6915 11.1438 27.4629 10.658C27.2343 10.1723 27.1201 9.60081 27.1201 8.94362C27.1201 8.02929 27.3486 7.23638 27.8058 6.56491C28.263 5.89345 28.9202 5.37913 29.7774 5.02197C30.6345 4.6648 31.6632 4.48622 32.8632 4.48622C34.0633 4.48622 35.0848 4.67909 35.9277 5.06483C36.7706 5.43628 37.4207 5.96488 37.8778 6.65063C38.335 7.3221 38.5636 8.12215 38.5636 9.05077H36.2063C36.1777 8.42217 36.0134 7.90785 35.7134 7.50783C35.4277 7.09352 35.0348 6.78636 34.5348 6.58634C34.0347 6.38633 33.449 6.28633 32.7775 6.28633C32.0918 6.28633 31.506 6.37919 31.0203 6.56491C30.5345 6.75064 30.1631 7.01494 29.9059 7.35782C29.6488 7.70069 29.5202 8.12929 29.5202 8.64361C29.5202 9.17221 29.6488 9.59366 29.9059 9.90797C30.1631 10.2223 30.5988 10.4794 31.2131 10.6794C31.8275 10.8652 32.6632 11.0509 33.7204 11.2366C34.4062 11.3366 35.0705 11.4795 35.7134 11.6652C36.3563 11.8509 36.9278 12.1081 37.4278 12.4367C37.9278 12.7653 38.3278 13.2153 38.6279 13.7868C38.9279 14.3439 39.0779 15.0726 39.0779 15.9726C39.0779 16.8584 38.8422 17.6441 38.3707 18.3299C37.9135 19.0014 37.2278 19.53 36.3134 19.9157C35.4134 20.2871 34.2919 20.4729 32.949 20.4729ZM44.7561 20.4729C44.0704 20.4729 43.4346 20.3371 42.8489 20.0657C42.2774 19.7943 41.7845 19.4085 41.3702 18.9085C40.9559 18.4085 40.6345 17.8013 40.4059 17.087C40.1916 16.3583 40.0844 15.5297 40.0844 14.6011C40.0844 13.3725 40.2773 12.3224 40.663 11.4509C41.0631 10.5794 41.6131 9.91511 42.3131 9.45794C43.0132 8.98648 43.8275 8.75076 44.7561 8.75076C45.3847 8.75076 45.9562 8.85076 46.4705 9.05077C46.9848 9.25079 47.4206 9.52937 47.7777 9.88654C48.1492 10.2294 48.4135 10.6437 48.5706 11.1295H48.6992L48.7849 8.94362H50.8851V20.28H48.7849L48.6992 18.0727H48.5706C48.3135 18.7871 47.8492 19.3657 47.1777 19.8085C46.5062 20.2514 45.699 20.4729 44.7561 20.4729ZM45.5062 18.6513C46.1919 18.6513 46.7705 18.4942 47.242 18.1799C47.7134 17.8656 48.0706 17.4513 48.3135 16.9369C48.5563 16.4226 48.6778 15.8583 48.6778 15.244V13.9582C48.6778 13.3296 48.5492 12.7581 48.292 12.2438C48.0492 11.7295 47.692 11.3223 47.2206 11.0223C46.7634 10.708 46.2062 10.5509 45.549 10.5509C44.8776 10.5509 44.299 10.7152 43.8132 11.0437C43.3418 11.3723 42.9774 11.8367 42.7203 12.4367C42.4774 13.0367 42.356 13.7582 42.356 14.6011C42.356 15.4297 42.4774 16.1512 42.7203 16.7655C42.9632 17.3798 43.3203 17.8513 43.7918 18.1799C44.2632 18.4942 44.8347 18.6513 45.5062 18.6513ZM53.5025 20.28V10.7223H51.6595V8.94362H53.5025V7.29353C53.5025 6.42205 53.7597 5.76487 54.274 5.32199C54.7883 4.8791 55.5026 4.65766 56.417 4.65766H58.1742V6.30776H56.9313C56.4741 6.30776 56.1527 6.41491 55.9669 6.6292C55.7812 6.82922 55.6883 7.12209 55.6883 7.50783V8.94362H57.9813V10.7223H55.6883V20.28H53.5025ZM63.1118 20.4729C62.0117 20.4729 61.0616 20.2371 60.2616 19.7657C59.4758 19.2799 58.8758 18.6013 58.4615 17.7299C58.0472 16.8584 57.84 15.8369 57.84 14.6654C57.84 13.4653 58.0472 12.4224 58.4615 11.5366C58.8758 10.6509 59.4687 9.97226 60.2402 9.5008C61.0259 9.01506 61.9617 8.77219 63.0475 8.77219C64.2333 8.77219 65.2119 9.04363 65.9834 9.58652C66.7691 10.1151 67.3334 10.8509 67.6763 11.7938C68.0192 12.7367 68.1478 13.8225 68.0621 15.0511H60.0044C60.0187 15.8797 60.1545 16.5726 60.4116 17.1298C60.6688 17.6727 61.0259 18.087 61.4831 18.3727C61.9546 18.6442 62.4974 18.7799 63.1118 18.7799C63.8547 18.7799 64.4547 18.6156 64.9119 18.287C65.3833 17.9584 65.6976 17.5227 65.8548 16.9798H67.9549C67.8406 17.7084 67.562 18.337 67.1191 18.8656C66.6763 19.3799 66.1119 19.78 65.4262 20.0657C64.7404 20.3371 63.969 20.4729 63.1118 20.4729ZM60.0259 13.8296L59.8116 13.551H66.1119L65.8976 13.8511C65.9119 13.0653 65.7976 12.4224 65.5548 11.9224C65.3262 11.4223 64.9904 11.058 64.5476 10.8294C64.119 10.5866 63.6189 10.4651 63.0475 10.4651C62.4474 10.4651 61.926 10.5937 61.4831 10.8509C61.0402 11.108 60.6902 11.4866 60.433 11.9867C60.1759 12.4867 60.0402 13.101 60.0259 13.8296ZM69.4304 20.28V4.65766H75.7307C77.2451 4.65766 78.5238 4.98625 79.5667 5.64343C80.6239 6.28633 81.4239 7.19352 81.9668 8.36502C82.524 9.53652 82.8026 10.908 82.8026 12.4795C82.8026 13.651 82.6454 14.7154 82.3311 15.6726C82.0168 16.6298 81.5597 17.4513 80.9596 18.137C80.3596 18.8228 79.6167 19.3514 78.7309 19.7228C77.8594 20.0943 76.8594 20.28 75.7307 20.28H69.4304ZM71.7662 18.2656H75.4093C76.1665 18.2656 76.8522 18.1513 77.4666 17.9227C78.0809 17.6798 78.6095 17.3227 79.0524 16.8512C79.4953 16.3655 79.831 15.7583 80.0596 15.0297C80.3024 14.2868 80.4239 13.4225 80.4239 12.4367C80.4239 11.108 80.2096 10.0223 79.781 9.17935C79.3667 8.32216 78.7809 7.69355 78.0237 7.29353C77.2808 6.87922 76.4094 6.67206 75.4093 6.67206H71.7662V18.2656ZM89.1373 20.4729C88.0372 20.4729 87.0872 20.2371 86.2871 19.7657C85.5013 19.2799 84.9013 18.6013 84.487 17.7299C84.0727 16.8584 83.8655 15.8369 83.8655 14.6654C83.8655 13.4653 84.0727 12.4224 84.487 11.5366C84.9013 10.6509 85.4942 9.97226 86.2657 9.5008C87.0514 9.01506 87.9872 8.77219 89.073 8.77219C90.2588 8.77219 91.2374 9.04363 92.0089 9.58652C92.7946 10.1151 93.3589 10.8509 93.7018 11.7938C94.0447 12.7367 94.1733 13.8225 94.0876 15.0511H86.03C86.0442 15.8797 86.18 16.5726 86.4371 17.1298C86.6943 17.6727 87.0514 18.087 87.5086 18.3727C87.9801 18.6442 88.523 18.7799 89.1373 18.7799C89.8802 18.7799 90.4802 18.6156 90.9374 18.287C91.4088 17.9584 91.7231 17.5227 91.8803 16.9798H93.9804C93.8661 17.7084 93.5875 18.337 93.1447 18.8656C92.7018 19.3799 92.1374 19.78 91.4517 20.0657C90.7659 20.3371 89.9945 20.4729 89.1373 20.4729ZM86.0514 13.8296L85.8371 13.551H92.1374L91.9232 13.8511C91.9374 13.0653 91.8231 12.4224 91.5803 11.9224C91.3517 11.4223 91.016 11.058 90.5731 10.8294C90.1445 10.5866 89.6444 10.4651 89.073 10.4651C88.473 10.4651 87.9515 10.5937 87.5086 10.8509C87.0657 11.108 86.7157 11.4866 86.4585 11.9867C86.2014 12.4867 86.0657 13.101 86.0514 13.8296ZM95.3059 23.8588V8.94362H97.3846L97.4703 11.1509H97.5989C97.856 10.4366 98.3203 9.86511 98.9918 9.43651C99.6776 8.99363 100.485 8.77219 101.413 8.77219C102.113 8.77219 102.749 8.90791 103.321 9.17935C103.892 9.43651 104.385 9.8151 104.799 10.3151C105.214 10.8152 105.528 11.4295 105.742 12.1581C105.971 12.8867 106.085 13.7082 106.085 14.6225C106.085 15.8512 105.892 16.9084 105.506 17.7941C105.121 18.6656 104.578 19.3299 103.878 19.7871C103.178 20.2443 102.356 20.4729 101.413 20.4729C100.799 20.4729 100.235 20.38 99.7204 20.1943C99.2061 19.9943 98.7704 19.7157 98.4132 19.3585C98.056 18.9871 97.7846 18.5656 97.5989 18.0942H97.5132V23.8588H95.3059ZM100.62 18.6728C101.306 18.6728 101.885 18.5156 102.356 18.2013C102.828 17.8727 103.192 17.4084 103.449 16.8084C103.706 16.194 103.835 15.4654 103.835 14.6225C103.835 13.7796 103.706 13.0582 103.449 12.4581C103.206 11.8581 102.849 11.4009 102.378 11.0866C101.906 10.758 101.335 10.5937 100.663 10.5937C99.9919 10.5937 99.4204 10.7509 98.9489 11.0652C98.4775 11.3652 98.1203 11.7724 97.8775 12.2867C97.6346 12.801 97.5132 13.3653 97.5132 13.9796V15.2654C97.5132 15.894 97.6346 16.4655 97.8775 16.9798C98.1203 17.4941 98.4775 17.9084 98.9489 18.2227C99.4204 18.5228 99.9776 18.6728 100.62 18.6728Z" fill="#F0FDFA"/>
<defs>
<linearGradient id="paint0_linear_9354_641" x1="20.2162" y1="2.52414" x2="3.75521" y2="6.01732" gradientUnits="userSpaceOnUse">
<stop stop-color="#00FFE3"/>
<stop offset="1" stop-color="#09524A"/>
</linearGradient>
<linearGradient id="paint1_linear_9354_641" x1="7.22781" y1="7.14002" x2="7.91578" y2="17.3617" gradientUnits="userSpaceOnUse">
<stop stop-color="#00FFE3"/>
<stop offset="1" stop-color="#09524A"/>
</linearGradient>
<linearGradient id="paint2_linear_9354_641" x1="3.78361" y1="21.4759" x2="20.2446" y2="17.9827" gradientUnits="userSpaceOnUse">
<stop stop-color="#00FFE3"/>
<stop offset="1" stop-color="#09524A"/>
</linearGradient>
<linearGradient id="paint3_linear_9354_641" x1="16.7721" y1="16.86" x2="16.0842" y2="6.63834" gradientUnits="userSpaceOnUse">
<stop stop-color="#00FFE3"/>
<stop offset="1" stop-color="#09524A"/>
</linearGradient>
</defs>
</svg>
